<svg width="33" height="40" viewBox="0 0 33 40" fill="none" xmlns="http://www.w3.org/2000/svg">
<path d="M33 9.97928V11.3596C32.0093 12.1878 32.3789 15.0718 31.0747 15.1775C30.5779 15.2187 26.0413 13.7062 24.6986 13.5153C24.116 13.433 23.5659 13.8178 23.0543 13.7708C22.4185 13.712 21.9246 12.875 21.1202 13.0865C21.3035 15.7267 18.0445 18.3347 18.08 20.925C18.1036 22.5726 22.658 25.5535 23.6369 27.3391C25.1215 30.044 24.2846 33.5007 26.8723 36.2232C27.1917 36.558 32.3375 39.9119 29.3595 40C29.114 40.0059 24.8997 38.4992 24.7578 38.3025C24.4177 37.8355 24.879 37.022 24.6986 36.3113C24.0775 33.8531 22.1523 33.5506 21.4987 32.555C20.718 31.3568 21.3922 29.4302 19.8988 27.9236C19.4611 27.483 14.9422 24.3465 14.4897 24.2583C12.6886 23.9118 12.6177 26.3054 11.139 25.1893C10.9142 25.019 9.80518 23.3744 9.73716 23.1071C9.57451 22.4962 10.1039 21.6563 9.92052 21.3978C9.84363 21.2892 8.12538 20.5961 7.52503 20.1291C5.91325 18.8839 3.39356 16.8281 2.52113 15.0571C2.28158 14.5667 2.36735 13.7708 2.17807 13.5065C2.01542 13.2774 1.13707 13.2363 0.687547 12.7341C-1.01591 10.8368 0.702335 7.49469 3.04459 7.96165C3.81647 8.11437 4.21572 8.99249 5.04379 8.9455C5.38684 7.23037 6.31842 5.53873 6.71471 3.86178C6.94834 2.86911 6.46629 0.267047 8.06919 0.00272821C8.46252 -0.061883 9.61591 1.03945 9.75787 1.3625C10.1009 2.14371 11.5678 7.40365 11.6092 8.19073C11.7038 9.8853 10.3227 11.5446 10.7841 13.0953C11.1242 14.2407 13.7917 16.6959 14.8357 16.038C15.8915 15.3743 18.3195 9.99984 20.0585 9.43009C22.8828 8.50204 27.5377 13.433 30.1993 12.223C31.196 11.7678 31.3941 9.67972 33 9.98516V9.97928ZM9.51832 8.87795C9.50353 7.99102 9.53606 3.52991 8.3738 3.77073C7.52799 3.94695 7.94202 6.79571 7.76458 7.65915C7.54573 8.73405 6.30068 9.75314 6.44855 11.016L9.51832 8.87795Z" fill="#F7941D"/>
</svg>
