<svg width="650" height="307" viewBox="0 0 650 307" fill="none" xmlns="http://www.w3.org/2000/svg">
<path d="M16.2559 275H19.7246L27.8809 294.922H28.1621L36.3184 275H39.7871V299H37.0684V280.766H36.834L29.334 299H26.709L19.209 280.766H18.9746V299H16.2559V275ZM50.5361 299.422C49.3955 299.422 48.3604 299.207 47.4307 298.777C46.501 298.34 45.7627 297.711 45.2158 296.891C44.6689 296.063 44.3955 295.062 44.3955 293.891C44.3955 292.859 44.5986 292.023 45.0049 291.383C45.4111 290.734 45.9541 290.227 46.6338 289.859C47.3135 289.492 48.0635 289.219 48.8838 289.039C49.7119 288.852 50.5439 288.703 51.3799 288.594C52.4736 288.453 53.3604 288.348 54.04 288.277C54.7275 288.199 55.2275 288.07 55.54 287.891C55.8604 287.711 56.0205 287.398 56.0205 286.953V286.859C56.0205 285.703 55.7041 284.805 55.0713 284.164C54.4463 283.523 53.4971 283.203 52.2236 283.203C50.9033 283.203 49.8682 283.492 49.1182 284.07C48.3682 284.648 47.8408 285.266 47.5361 285.922L44.9111 284.984C45.3799 283.891 46.0049 283.039 46.7861 282.43C47.5752 281.812 48.4346 281.383 49.3643 281.141C50.3018 280.891 51.2236 280.766 52.1299 280.766C52.708 280.766 53.3721 280.836 54.1221 280.977C54.8799 281.109 55.6104 281.387 56.3135 281.809C57.0244 282.23 57.6143 282.867 58.083 283.719C58.5518 284.57 58.7861 285.711 58.7861 287.141V299H56.0205V296.562H55.8799C55.6924 296.953 55.3799 297.371 54.9424 297.816C54.5049 298.262 53.9229 298.641 53.1963 298.953C52.4697 299.266 51.583 299.422 50.5361 299.422ZM50.958 296.938C52.0518 296.938 52.9736 296.723 53.7236 296.293C54.4814 295.863 55.0518 295.309 55.4346 294.629C55.8252 293.949 56.0205 293.234 56.0205 292.484V289.953C55.9033 290.094 55.6455 290.223 55.2471 290.34C54.8564 290.449 54.4033 290.547 53.8877 290.633C53.3799 290.711 52.8838 290.781 52.3994 290.844C51.9229 290.898 51.5361 290.945 51.2393 290.984C50.5205 291.078 49.8486 291.23 49.2236 291.441C48.6064 291.645 48.1064 291.953 47.7236 292.367C47.3486 292.773 47.1611 293.328 47.1611 294.031C47.1611 294.992 47.5166 295.719 48.2275 296.211C48.9463 296.695 49.8564 296.938 50.958 296.938ZM66.5996 288.172V299H63.834V275H66.5996V283.812H66.834C67.2559 282.883 67.8887 282.145 68.7324 281.598C69.584 281.043 70.7168 280.766 72.1309 280.766C73.3574 280.766 74.4316 281.012 75.3535 281.504C76.2754 281.988 76.9902 282.734 77.498 283.742C78.0137 284.742 78.2715 286.016 78.2715 287.563V299H75.5059V287.75C75.5059 286.32 75.1348 285.215 74.3926 284.434C73.6582 283.645 72.6387 283.25 71.334 283.25C70.4277 283.25 69.6152 283.441 68.8965 283.824C68.1855 284.207 67.623 284.766 67.209 285.5C66.8027 286.234 66.5996 287.125 66.5996 288.172ZM88.6279 299.422C87.4873 299.422 86.4521 299.207 85.5225 298.777C84.5928 298.34 83.8545 297.711 83.3076 296.891C82.7607 296.063 82.4873 295.062 82.4873 293.891C82.4873 292.859 82.6904 292.023 83.0967 291.383C83.5029 290.734 84.0459 290.227 84.7256 289.859C85.4053 289.492 86.1553 289.219 86.9756 289.039C87.8037 288.852 88.6357 288.703 89.4717 288.594C90.5654 288.453 91.4521 288.348 92.1318 288.277C92.8193 288.199 93.3193 288.07 93.6318 287.891C93.9521 287.711 94.1123 287.398 94.1123 286.953V286.859C94.1123 285.703 93.7959 284.805 93.1631 284.164C92.5381 283.523 91.5889 283.203 90.3154 283.203C88.9951 283.203 87.96 283.492 87.21 284.07C86.46 284.648 85.9326 285.266 85.6279 285.922L83.0029 284.984C83.4717 283.891 84.0967 283.039 84.8779 282.43C85.667 281.812 86.5264 281.383 87.4561 281.141C88.3936 280.891 89.3154 280.766 90.2217 280.766C90.7998 280.766 91.4639 280.836 92.2139 280.977C92.9717 281.109 93.7021 281.387 94.4053 281.809C95.1162 282.23 95.7061 282.867 96.1748 283.719C96.6436 284.57 96.8779 285.711 96.8779 287.141V299H94.1123V296.562H93.9717C93.7842 296.953 93.4717 297.371 93.0342 297.816C92.5967 298.262 92.0146 298.641 91.2881 298.953C90.5615 299.266 89.6748 299.422 88.6279 299.422ZM89.0498 296.938C90.1436 296.938 91.0654 296.723 91.8154 296.293C92.5732 295.863 93.1436 295.309 93.5264 294.629C93.917 293.949 94.1123 293.234 94.1123 292.484V289.953C93.9951 290.094 93.7373 290.223 93.3389 290.34C92.9482 290.449 92.4951 290.547 91.9795 290.633C91.4717 290.711 90.9756 290.781 90.4912 290.844C90.0146 290.898 89.6279 290.945 89.3311 290.984C88.6123 291.078 87.9404 291.23 87.3154 291.441C86.6982 291.645 86.1982 291.953 85.8154 292.367C85.4404 292.773 85.2529 293.328 85.2529 294.031C85.2529 294.992 85.6084 295.719 86.3193 296.211C87.0381 296.695 87.9482 296.938 89.0498 296.938ZM101.926 299V281H104.598V283.719H104.785C105.113 282.828 105.707 282.105 106.566 281.551C107.426 280.996 108.395 280.719 109.473 280.719C109.676 280.719 109.93 280.723 110.234 280.73C110.539 280.738 110.77 280.75 110.926 280.766V283.578C110.832 283.555 110.617 283.52 110.281 283.473C109.953 283.418 109.605 283.391 109.238 283.391C108.363 283.391 107.582 283.574 106.895 283.941C106.215 284.301 105.676 284.801 105.277 285.441C104.887 286.074 104.691 286.797 104.691 287.609V299H101.926ZM119.501 299.422C118.36 299.422 117.325 299.207 116.396 298.777C115.466 298.34 114.728 297.711 114.181 296.891C113.634 296.063 113.36 295.062 113.36 293.891C113.36 292.859 113.563 292.023 113.97 291.383C114.376 290.734 114.919 290.227 115.599 289.859C116.278 289.492 117.028 289.219 117.849 289.039C118.677 288.852 119.509 288.703 120.345 288.594C121.438 288.453 122.325 288.348 123.005 288.277C123.692 288.199 124.192 288.07 124.505 287.891C124.825 287.711 124.985 287.398 124.985 286.953V286.859C124.985 285.703 124.669 284.805 124.036 284.164C123.411 283.523 122.462 283.203 121.188 283.203C119.868 283.203 118.833 283.492 118.083 284.07C117.333 284.648 116.806 285.266 116.501 285.922L113.876 284.984C114.345 283.891 114.97 283.039 115.751 282.43C116.54 281.812 117.399 281.383 118.329 281.141C119.267 280.891 120.188 280.766 121.095 280.766C121.673 280.766 122.337 280.836 123.087 280.977C123.845 281.109 124.575 281.387 125.278 281.809C125.989 282.23 126.579 282.867 127.048 283.719C127.517 284.57 127.751 285.711 127.751 287.141V299H124.985V296.562H124.845C124.657 296.953 124.345 297.371 123.907 297.816C123.47 298.262 122.888 298.641 122.161 298.953C121.435 299.266 120.548 299.422 119.501 299.422ZM119.923 296.938C121.017 296.938 121.938 296.723 122.688 296.293C123.446 295.863 124.017 295.309 124.399 294.629C124.79 293.949 124.985 293.234 124.985 292.484V289.953C124.868 290.094 124.61 290.223 124.212 290.34C123.821 290.449 123.368 290.547 122.853 290.633C122.345 290.711 121.849 290.781 121.364 290.844C120.888 290.898 120.501 290.945 120.204 290.984C119.485 291.078 118.813 291.23 118.188 291.441C117.571 291.645 117.071 291.953 116.688 292.367C116.313 292.773 116.126 293.328 116.126 294.031C116.126 294.992 116.481 295.719 117.192 296.211C117.911 296.695 118.821 296.938 119.923 296.938ZM145.549 285.031L143.064 285.734C142.908 285.32 142.678 284.918 142.373 284.527C142.076 284.129 141.67 283.801 141.154 283.543C140.639 283.285 139.979 283.156 139.174 283.156C138.072 283.156 137.154 283.41 136.42 283.918C135.693 284.418 135.33 285.055 135.33 285.828C135.33 286.516 135.58 287.059 136.08 287.457C136.58 287.855 137.361 288.187 138.424 288.453L141.096 289.109C142.705 289.5 143.904 290.098 144.693 290.902C145.482 291.699 145.877 292.727 145.877 293.984C145.877 295.016 145.58 295.937 144.986 296.75C144.4 297.562 143.58 298.203 142.525 298.672C141.471 299.141 140.244 299.375 138.846 299.375C137.01 299.375 135.49 298.977 134.287 298.18C133.084 297.383 132.322 296.219 132.002 294.687L134.627 294.031C134.877 295 135.35 295.727 136.045 296.211C136.748 296.695 137.666 296.938 138.799 296.938C140.088 296.938 141.111 296.664 141.869 296.117C142.635 295.562 143.018 294.898 143.018 294.125C143.018 293.5 142.799 292.977 142.361 292.555C141.924 292.125 141.252 291.805 140.346 291.594L137.346 290.891C135.697 290.5 134.486 289.895 133.713 289.074C132.947 288.246 132.564 287.211 132.564 285.969C132.564 284.953 132.85 284.055 133.42 283.273C133.998 282.492 134.783 281.879 135.775 281.434C136.775 280.988 137.908 280.766 139.174 280.766C140.955 280.766 142.354 281.156 143.369 281.937C144.393 282.719 145.119 283.75 145.549 285.031ZM152.806 288.172V299H150.04V275H152.806V283.812H153.04C153.462 282.883 154.095 282.145 154.938 281.598C155.79 281.043 156.923 280.766 158.337 280.766C159.563 280.766 160.638 281.012 161.56 281.504C162.481 281.988 163.196 282.734 163.704 283.742C164.22 284.742 164.478 286.016 164.478 287.563V299H161.712V287.75C161.712 286.32 161.341 285.215 160.599 284.434C159.864 283.645 158.845 283.25 157.54 283.25C156.634 283.25 155.821 283.441 155.103 283.824C154.392 284.207 153.829 284.766 153.415 285.5C153.009 286.234 152.806 287.125 152.806 288.172ZM177.365 281V283.344H168.037V281H177.365ZM170.756 276.687H173.521V293.844C173.521 294.625 173.635 295.211 173.861 295.602C174.096 295.984 174.393 296.242 174.752 296.375C175.119 296.5 175.506 296.562 175.912 296.562C176.217 296.562 176.467 296.547 176.662 296.516C176.857 296.477 177.014 296.445 177.131 296.422L177.693 298.906C177.506 298.977 177.244 299.047 176.908 299.117C176.572 299.195 176.146 299.234 175.631 299.234C174.85 299.234 174.084 299.066 173.334 298.73C172.592 298.395 171.975 297.883 171.482 297.195C170.998 296.508 170.756 295.641 170.756 294.594V276.687ZM181.525 299V281H184.197V283.719H184.385C184.713 282.828 185.307 282.105 186.166 281.551C187.025 280.996 187.994 280.719 189.072 280.719C189.275 280.719 189.529 280.723 189.834 280.73C190.139 280.738 190.369 280.75 190.525 280.766V283.578C190.432 283.555 190.217 283.52 189.881 283.473C189.553 283.418 189.205 283.391 188.838 283.391C187.963 283.391 187.182 283.574 186.494 283.941C185.814 284.301 185.275 284.801 184.877 285.441C184.486 286.074 184.291 286.797 184.291 287.609V299H181.525ZM199.101 299.422C197.96 299.422 196.925 299.207 195.995 298.777C195.065 298.34 194.327 297.711 193.78 296.891C193.233 296.063 192.96 295.062 192.96 293.891C192.96 292.859 193.163 292.023 193.569 291.383C193.976 290.734 194.519 290.227 195.198 289.859C195.878 289.492 196.628 289.219 197.448 289.039C198.276 288.852 199.108 288.703 199.944 288.594C201.038 288.453 201.925 288.348 202.604 288.277C203.292 288.199 203.792 288.07 204.104 287.891C204.425 287.711 204.585 287.398 204.585 286.953V286.859C204.585 285.703 204.269 284.805 203.636 284.164C203.011 283.523 202.062 283.203 200.788 283.203C199.468 283.203 198.433 283.492 197.683 284.07C196.933 284.648 196.405 285.266 196.101 285.922L193.476 284.984C193.944 283.891 194.569 283.039 195.351 282.43C196.14 281.812 196.999 281.383 197.929 281.141C198.866 280.891 199.788 280.766 200.694 280.766C201.272 280.766 201.937 280.836 202.687 280.977C203.444 281.109 204.175 281.387 204.878 281.809C205.589 282.23 206.179 282.867 206.647 283.719C207.116 284.57 207.351 285.711 207.351 287.141V299H204.585V296.562H204.444C204.257 296.953 203.944 297.371 203.507 297.816C203.069 298.262 202.487 298.641 201.761 298.953C201.034 299.266 200.147 299.422 199.101 299.422ZM199.522 296.938C200.616 296.938 201.538 296.723 202.288 296.293C203.046 295.863 203.616 295.309 203.999 294.629C204.39 293.949 204.585 293.234 204.585 292.484V289.953C204.468 290.094 204.21 290.223 203.812 290.34C203.421 290.449 202.968 290.547 202.452 290.633C201.944 290.711 201.448 290.781 200.964 290.844C200.487 290.898 200.101 290.945 199.804 290.984C199.085 291.078 198.413 291.23 197.788 291.441C197.171 291.645 196.671 291.953 196.288 292.367C195.913 292.773 195.726 293.328 195.726 294.031C195.726 294.992 196.081 295.719 196.792 296.211C197.511 296.695 198.421 296.938 199.522 296.938ZM235.18 281C235.039 279.812 234.469 278.891 233.469 278.234C232.469 277.578 231.242 277.25 229.789 277.25C228.727 277.25 227.797 277.422 227 277.766C226.211 278.109 225.594 278.582 225.148 279.184C224.711 279.785 224.492 280.469 224.492 281.234C224.492 281.875 224.645 282.426 224.949 282.887C225.262 283.34 225.66 283.719 226.145 284.023C226.629 284.32 227.137 284.566 227.668 284.762C228.199 284.949 228.688 285.102 229.133 285.219L231.57 285.875C232.195 286.039 232.891 286.266 233.656 286.555C234.43 286.844 235.168 287.238 235.871 287.738C236.582 288.23 237.168 288.863 237.629 289.637C238.09 290.41 238.32 291.359 238.32 292.484C238.32 293.781 237.98 294.953 237.301 296C236.629 297.047 235.645 297.879 234.348 298.496C233.059 299.113 231.492 299.422 229.648 299.422C227.93 299.422 226.441 299.145 225.184 298.59C223.934 298.035 222.949 297.262 222.23 296.27C221.52 295.277 221.117 294.125 221.023 292.812H224.023C224.102 293.719 224.406 294.469 224.938 295.062C225.477 295.648 226.156 296.086 226.977 296.375C227.805 296.656 228.695 296.797 229.648 296.797C230.758 296.797 231.754 296.617 232.637 296.258C233.52 295.891 234.219 295.383 234.734 294.734C235.25 294.078 235.508 293.313 235.508 292.437C235.508 291.641 235.285 290.992 234.84 290.492C234.395 289.992 233.809 289.586 233.082 289.273C232.355 288.961 231.57 288.687 230.727 288.453L227.773 287.609C225.898 287.07 224.414 286.301 223.32 285.301C222.227 284.301 221.68 282.992 221.68 281.375C221.68 280.031 222.043 278.859 222.77 277.859C223.504 276.852 224.488 276.07 225.723 275.516C226.965 274.953 228.352 274.672 229.883 274.672C231.43 274.672 232.805 274.949 234.008 275.504C235.211 276.051 236.164 276.801 236.867 277.754C237.578 278.707 237.953 279.789 237.992 281H235.18ZM242.724 305.75V281H245.396V283.859H245.724C245.927 283.547 246.208 283.148 246.567 282.664C246.935 282.172 247.458 281.734 248.138 281.352C248.825 280.961 249.755 280.766 250.927 280.766C252.442 280.766 253.778 281.145 254.935 281.902C256.091 282.66 256.993 283.734 257.642 285.125C258.29 286.516 258.614 288.156 258.614 290.047C258.614 291.953 258.29 293.605 257.642 295.004C256.993 296.395 256.095 297.473 254.946 298.238C253.798 298.996 252.474 299.375 250.974 299.375C249.817 299.375 248.892 299.184 248.196 298.801C247.501 298.41 246.966 297.969 246.591 297.477C246.216 296.977 245.927 296.562 245.724 296.234H245.489V305.75H242.724ZM245.442 290C245.442 291.359 245.642 292.559 246.04 293.598C246.438 294.629 247.021 295.437 247.786 296.023C248.552 296.602 249.489 296.891 250.599 296.891C251.755 296.891 252.72 296.586 253.493 295.977C254.274 295.359 254.86 294.531 255.251 293.492C255.649 292.445 255.849 291.281 255.849 290C255.849 288.734 255.653 287.594 255.263 286.578C254.88 285.555 254.298 284.746 253.517 284.152C252.743 283.551 251.771 283.25 250.599 283.25C249.474 283.25 248.528 283.535 247.763 284.105C246.997 284.668 246.419 285.457 246.028 286.473C245.638 287.48 245.442 288.656 245.442 290ZM270.146 299.375C268.521 299.375 267.095 298.988 265.868 298.215C264.649 297.441 263.696 296.359 263.009 294.969C262.329 293.578 261.989 291.953 261.989 290.094C261.989 288.219 262.329 286.582 263.009 285.184C263.696 283.785 264.649 282.699 265.868 281.926C267.095 281.152 268.521 280.766 270.146 280.766C271.771 280.766 273.192 281.152 274.411 281.926C275.638 282.699 276.591 283.785 277.271 285.184C277.958 286.582 278.302 288.219 278.302 290.094C278.302 291.953 277.958 293.578 277.271 294.969C276.591 296.359 275.638 297.441 274.411 298.215C273.192 298.988 271.771 299.375 270.146 299.375ZM270.146 296.891C271.38 296.891 272.396 296.574 273.192 295.941C273.989 295.309 274.579 294.477 274.962 293.445C275.345 292.414 275.536 291.297 275.536 290.094C275.536 288.891 275.345 287.77 274.962 286.73C274.579 285.691 273.989 284.852 273.192 284.211C272.396 283.57 271.38 283.25 270.146 283.25C268.911 283.25 267.896 283.57 267.099 284.211C266.302 284.852 265.712 285.691 265.329 286.73C264.946 287.77 264.755 288.891 264.755 290.094C264.755 291.297 264.946 292.414 265.329 293.445C265.712 294.477 266.302 295.309 267.099 295.941C267.896 296.574 268.911 296.891 270.146 296.891ZM282.523 299V281H285.195V283.719H285.383C285.711 282.828 286.305 282.105 287.164 281.551C288.023 280.996 288.992 280.719 290.07 280.719C290.273 280.719 290.527 280.723 290.832 280.73C291.137 280.738 291.367 280.75 291.523 280.766V283.578C291.43 283.555 291.215 283.52 290.879 283.473C290.551 283.418 290.203 283.391 289.836 283.391C288.961 283.391 288.18 283.574 287.492 283.941C286.813 284.301 286.273 284.801 285.875 285.441C285.484 286.074 285.289 286.797 285.289 287.609V299H282.523ZM303.758 281V283.344H294.43V281H303.758ZM297.148 276.687H299.914V293.844C299.914 294.625 300.027 295.211 300.254 295.602C300.488 295.984 300.785 296.242 301.145 296.375C301.512 296.5 301.898 296.562 302.305 296.562C302.609 296.562 302.859 296.547 303.055 296.516C303.25 296.477 303.406 296.445 303.523 296.422L304.086 298.906C303.898 298.977 303.637 299.047 303.301 299.117C302.965 299.195 302.539 299.234 302.023 299.234C301.242 299.234 300.477 299.066 299.727 298.73C298.984 298.395 298.367 297.883 297.875 297.195C297.391 296.508 297.148 295.641 297.148 294.594V276.687ZM336.887 282.5H333.98C333.809 281.664 333.508 280.93 333.078 280.297C332.656 279.664 332.141 279.133 331.531 278.703C330.93 278.266 330.262 277.937 329.527 277.719C328.793 277.5 328.027 277.391 327.23 277.391C325.777 277.391 324.461 277.758 323.281 278.492C322.109 279.227 321.176 280.309 320.48 281.738C319.793 283.168 319.449 284.922 319.449 287C319.449 289.078 319.793 290.832 320.48 292.262C321.176 293.691 322.109 294.773 323.281 295.508C324.461 296.242 325.777 296.609 327.23 296.609C328.027 296.609 328.793 296.5 329.527 296.281C330.262 296.062 330.93 295.738 331.531 295.309C332.141 294.871 332.656 294.336 333.078 293.703C333.508 293.062 333.809 292.328 333.98 291.5H336.887C336.668 292.727 336.27 293.824 335.691 294.793C335.113 295.762 334.395 296.586 333.535 297.266C332.676 297.937 331.711 298.449 330.641 298.801C329.578 299.152 328.441 299.328 327.23 299.328C325.184 299.328 323.363 298.828 321.77 297.828C320.176 296.828 318.922 295.406 318.008 293.562C317.094 291.719 316.637 289.531 316.637 287C316.637 284.469 317.094 282.281 318.008 280.438C318.922 278.594 320.176 277.172 321.77 276.172C323.363 275.172 325.184 274.672 327.23 274.672C328.441 274.672 329.578 274.848 330.641 275.199C331.711 275.551 332.676 276.066 333.535 276.746C334.395 277.418 335.113 278.238 335.691 279.207C336.27 280.168 336.668 281.266 336.887 282.5ZM343.974 275V299H341.208V275H343.974ZM349.039 299V281H351.805V299H349.039ZM350.445 278C349.906 278 349.441 277.816 349.051 277.449C348.668 277.082 348.477 276.641 348.477 276.125C348.477 275.609 348.668 275.168 349.051 274.801C349.441 274.434 349.906 274.25 350.445 274.25C350.984 274.25 351.445 274.434 351.828 274.801C352.219 275.168 352.414 275.609 352.414 276.125C352.414 276.641 352.219 277.082 351.828 277.449C351.445 277.816 350.984 278 350.445 278ZM356.87 299V281H359.542V283.812H359.776C360.151 282.852 360.757 282.105 361.593 281.574C362.429 281.035 363.433 280.766 364.604 280.766C365.792 280.766 366.78 281.035 367.569 281.574C368.366 282.105 368.987 282.852 369.433 283.812H369.62C370.081 282.883 370.772 282.145 371.694 281.598C372.616 281.043 373.722 280.766 375.011 280.766C376.62 280.766 377.937 281.27 378.96 282.277C379.983 283.277 380.495 284.836 380.495 286.953V299H377.729V286.953C377.729 285.625 377.366 284.676 376.64 284.105C375.913 283.535 375.058 283.25 374.073 283.25C372.808 283.25 371.827 283.633 371.132 284.398C370.437 285.156 370.089 286.117 370.089 287.281V299H367.276V286.672C367.276 285.648 366.944 284.824 366.28 284.199C365.616 283.566 364.761 283.25 363.714 283.25C362.995 283.25 362.323 283.441 361.698 283.824C361.081 284.207 360.581 284.738 360.198 285.418C359.823 286.09 359.636 286.867 359.636 287.75V299H356.87ZM385.927 299V275H388.692V283.859H388.927C389.13 283.547 389.411 283.148 389.771 282.664C390.138 282.172 390.661 281.734 391.341 281.352C392.028 280.961 392.958 280.766 394.13 280.766C395.646 280.766 396.981 281.145 398.138 281.902C399.294 282.66 400.196 283.734 400.845 285.125C401.493 286.516 401.817 288.156 401.817 290.047C401.817 291.953 401.493 293.605 400.845 295.004C400.196 296.395 399.298 297.473 398.149 298.238C397.001 298.996 395.677 299.375 394.177 299.375C393.021 299.375 392.095 299.184 391.399 298.801C390.704 298.41 390.169 297.969 389.794 297.477C389.419 296.977 389.13 296.562 388.927 296.234H388.599V299H385.927ZM388.646 290C388.646 291.359 388.845 292.559 389.243 293.598C389.642 294.629 390.224 295.437 390.989 296.023C391.755 296.602 392.692 296.891 393.802 296.891C394.958 296.891 395.923 296.586 396.696 295.977C397.478 295.359 398.063 294.531 398.454 293.492C398.853 292.445 399.052 291.281 399.052 290C399.052 288.734 398.856 287.594 398.466 286.578C398.083 285.555 397.501 284.746 396.72 284.152C395.946 283.551 394.974 283.25 393.802 283.25C392.677 283.25 391.731 283.535 390.966 284.105C390.2 284.668 389.622 285.457 389.231 286.473C388.841 287.48 388.646 288.656 388.646 290ZM406.048 299V281H408.813V299H406.048ZM407.454 278C406.915 278 406.45 277.816 406.06 277.449C405.677 277.082 405.485 276.641 405.485 276.125C405.485 275.609 405.677 275.168 406.06 274.801C406.45 274.434 406.915 274.25 407.454 274.25C407.993 274.25 408.454 274.434 408.837 274.801C409.228 275.168 409.423 275.609 409.423 276.125C409.423 276.641 409.228 277.082 408.837 277.449C408.454 277.816 407.993 278 407.454 278ZM416.645 288.172V299H413.879V281H416.551V283.812H416.785C417.207 282.898 417.848 282.164 418.707 281.609C419.566 281.047 420.676 280.766 422.035 280.766C423.254 280.766 424.32 281.016 425.234 281.516C426.148 282.008 426.859 282.758 427.367 283.766C427.875 284.766 428.129 286.031 428.129 287.563V299H425.363V287.75C425.363 286.336 424.996 285.234 424.262 284.445C423.527 283.648 422.52 283.25 421.238 283.25C420.355 283.25 419.566 283.441 418.871 283.824C418.184 284.207 417.641 284.766 417.242 285.5C416.844 286.234 416.645 287.125 416.645 288.172ZM440.448 306.125C439.112 306.125 437.964 305.953 437.003 305.609C436.042 305.273 435.241 304.828 434.601 304.273C433.968 303.727 433.464 303.141 433.089 302.516L435.292 300.969C435.542 301.297 435.858 301.672 436.241 302.094C436.624 302.523 437.147 302.895 437.812 303.207C438.483 303.527 439.362 303.687 440.448 303.687C441.901 303.687 443.101 303.336 444.046 302.633C444.991 301.93 445.464 300.828 445.464 299.328V295.672H445.229C445.026 296 444.737 296.406 444.362 296.891C443.995 297.367 443.464 297.793 442.769 298.168C442.081 298.535 441.151 298.719 439.979 298.719C438.526 298.719 437.222 298.375 436.065 297.688C434.917 297 434.007 296 433.335 294.687C432.671 293.375 432.339 291.781 432.339 289.906C432.339 288.062 432.663 286.457 433.312 285.09C433.96 283.715 434.862 282.652 436.019 281.902C437.175 281.145 438.511 280.766 440.026 280.766C441.198 280.766 442.128 280.961 442.815 281.352C443.511 281.734 444.042 282.172 444.409 282.664C444.784 283.148 445.073 283.547 445.276 283.859H445.558V281H448.229V299.516C448.229 301.062 447.878 302.32 447.175 303.289C446.479 304.266 445.542 304.98 444.362 305.434C443.19 305.895 441.886 306.125 440.448 306.125ZM440.354 296.234C441.464 296.234 442.401 295.98 443.167 295.473C443.933 294.965 444.515 294.234 444.913 293.281C445.312 292.328 445.511 291.187 445.511 289.859C445.511 288.562 445.315 287.418 444.925 286.426C444.534 285.434 443.956 284.656 443.19 284.094C442.425 283.531 441.479 283.25 440.354 283.25C439.183 283.25 438.206 283.547 437.425 284.141C436.651 284.734 436.069 285.531 435.679 286.531C435.296 287.531 435.104 288.641 435.104 289.859C435.104 291.109 435.3 292.215 435.69 293.176C436.089 294.129 436.675 294.879 437.448 295.426C438.229 295.965 439.198 296.234 440.354 296.234ZM463.933 299H460.886L469.698 275H472.698L481.511 299H478.464L471.292 278.797H471.104L463.933 299ZM465.058 289.625H477.339V292.203H465.058V289.625ZM497.624 285.031L495.14 285.734C494.983 285.32 494.753 284.918 494.448 284.527C494.151 284.129 493.745 283.801 493.229 283.543C492.714 283.285 492.054 283.156 491.249 283.156C490.147 283.156 489.229 283.41 488.495 283.918C487.769 284.418 487.405 285.055 487.405 285.828C487.405 286.516 487.655 287.059 488.155 287.457C488.655 287.855 489.437 288.187 490.499 288.453L493.171 289.109C494.78 289.5 495.979 290.098 496.769 290.902C497.558 291.699 497.952 292.727 497.952 293.984C497.952 295.016 497.655 295.937 497.062 296.75C496.476 297.562 495.655 298.203 494.601 298.672C493.546 299.141 492.319 299.375 490.921 299.375C489.085 299.375 487.565 298.977 486.362 298.18C485.159 297.383 484.397 296.219 484.077 294.687L486.702 294.031C486.952 295 487.425 295.727 488.12 296.211C488.823 296.695 489.741 296.938 490.874 296.938C492.163 296.938 493.187 296.664 493.944 296.117C494.71 295.562 495.093 294.898 495.093 294.125C495.093 293.5 494.874 292.977 494.437 292.555C493.999 292.125 493.327 291.805 492.421 291.594L489.421 290.891C487.772 290.5 486.562 289.895 485.788 289.074C485.022 288.246 484.64 287.211 484.64 285.969C484.64 284.953 484.925 284.055 485.495 283.273C486.073 282.492 486.858 281.879 487.851 281.434C488.851 280.988 489.983 280.766 491.249 280.766C493.03 280.766 494.429 281.156 495.444 281.937C496.468 282.719 497.194 283.75 497.624 285.031ZM514.865 285.031L512.381 285.734C512.225 285.32 511.994 284.918 511.689 284.527C511.393 284.129 510.986 283.801 510.471 283.543C509.955 283.285 509.295 283.156 508.49 283.156C507.389 283.156 506.471 283.41 505.736 283.918C505.01 284.418 504.646 285.055 504.646 285.828C504.646 286.516 504.896 287.059 505.396 287.457C505.896 287.855 506.678 288.187 507.74 288.453L510.412 289.109C512.021 289.5 513.221 290.098 514.01 290.902C514.799 291.699 515.193 292.727 515.193 293.984C515.193 295.016 514.896 295.937 514.303 296.75C513.717 297.562 512.896 298.203 511.842 298.672C510.787 299.141 509.561 299.375 508.162 299.375C506.326 299.375 504.807 298.977 503.604 298.18C502.4 297.383 501.639 296.219 501.318 294.687L503.943 294.031C504.193 295 504.666 295.727 505.361 296.211C506.064 296.695 506.982 296.938 508.115 296.938C509.404 296.938 510.428 296.664 511.186 296.117C511.951 295.562 512.334 294.898 512.334 294.125C512.334 293.5 512.115 292.977 511.678 292.555C511.24 292.125 510.568 291.805 509.662 291.594L506.662 290.891C505.014 290.5 503.803 289.895 503.029 289.074C502.264 288.246 501.881 287.211 501.881 285.969C501.881 284.953 502.166 284.055 502.736 283.273C503.314 282.492 504.1 281.879 505.092 281.434C506.092 280.988 507.225 280.766 508.49 280.766C510.271 280.766 511.67 281.156 512.686 281.937C513.709 282.719 514.436 283.75 514.865 285.031ZM526.669 299.375C525.044 299.375 523.618 298.988 522.392 298.215C521.173 297.441 520.22 296.359 519.532 294.969C518.853 293.578 518.513 291.953 518.513 290.094C518.513 288.219 518.853 286.582 519.532 285.184C520.22 283.785 521.173 282.699 522.392 281.926C523.618 281.152 525.044 280.766 526.669 280.766C528.294 280.766 529.716 281.152 530.935 281.926C532.161 282.699 533.114 283.785 533.794 285.184C534.481 286.582 534.825 288.219 534.825 290.094C534.825 291.953 534.481 293.578 533.794 294.969C533.114 296.359 532.161 297.441 530.935 298.215C529.716 298.988 528.294 299.375 526.669 299.375ZM526.669 296.891C527.903 296.891 528.919 296.574 529.716 295.941C530.513 295.309 531.103 294.477 531.485 293.445C531.868 292.414 532.06 291.297 532.06 290.094C532.06 288.891 531.868 287.77 531.485 286.73C531.103 285.691 530.513 284.852 529.716 284.211C528.919 283.57 527.903 283.25 526.669 283.25C525.435 283.25 524.419 283.57 523.622 284.211C522.825 284.852 522.235 285.691 521.853 286.73C521.47 287.77 521.278 288.891 521.278 290.094C521.278 291.297 521.47 292.414 521.853 293.445C522.235 294.477 522.825 295.309 523.622 295.941C524.419 296.574 525.435 296.891 526.669 296.891ZM546.359 299.375C544.672 299.375 543.219 298.977 542 298.18C540.781 297.383 539.844 296.285 539.188 294.887C538.531 293.488 538.203 291.891 538.203 290.094C538.203 288.266 538.539 286.652 539.211 285.254C539.891 283.848 540.836 282.75 542.047 281.961C543.266 281.164 544.688 280.766 546.312 280.766C547.578 280.766 548.719 281 549.734 281.469C550.75 281.937 551.582 282.594 552.23 283.437C552.879 284.281 553.281 285.266 553.438 286.391H550.672C550.461 285.57 549.992 284.844 549.266 284.211C548.547 283.57 547.578 283.25 546.359 283.25C545.281 283.25 544.336 283.531 543.523 284.094C542.719 284.648 542.09 285.434 541.637 286.449C541.191 287.457 540.969 288.641 540.969 290C540.969 291.391 541.188 292.602 541.625 293.633C542.07 294.664 542.695 295.465 543.5 296.035C544.313 296.605 545.266 296.891 546.359 296.891C547.078 296.891 547.73 296.766 548.316 296.516C548.902 296.266 549.398 295.906 549.805 295.437C550.211 294.969 550.5 294.406 550.672 293.75H553.438C553.281 294.812 552.895 295.77 552.277 296.621C551.668 297.465 550.859 298.137 549.852 298.637C548.852 299.129 547.688 299.375 546.359 299.375ZM557.48 299V281H560.246V299H557.48ZM558.887 278C558.348 278 557.883 277.816 557.492 277.449C557.109 277.082 556.918 276.641 556.918 276.125C556.918 275.609 557.109 275.168 557.492 274.801C557.883 274.434 558.348 274.25 558.887 274.25C559.426 274.25 559.887 274.434 560.27 274.801C560.66 275.168 560.855 275.609 560.855 276.125C560.855 276.641 560.66 277.082 560.27 277.449C559.887 277.816 559.426 278 558.887 278ZM570.608 299.422C569.468 299.422 568.433 299.207 567.503 298.777C566.573 298.34 565.835 297.711 565.288 296.891C564.741 296.063 564.468 295.062 564.468 293.891C564.468 292.859 564.671 292.023 565.077 291.383C565.483 290.734 566.026 290.227 566.706 289.859C567.386 289.492 568.136 289.219 568.956 289.039C569.784 288.852 570.616 288.703 571.452 288.594C572.546 288.453 573.433 288.348 574.112 288.277C574.8 288.199 575.3 288.07 575.612 287.891C575.933 287.711 576.093 287.398 576.093 286.953V286.859C576.093 285.703 575.776 284.805 575.144 284.164C574.519 283.523 573.569 283.203 572.296 283.203C570.976 283.203 569.94 283.492 569.19 284.07C568.44 284.648 567.913 285.266 567.608 285.922L564.983 284.984C565.452 283.891 566.077 283.039 566.858 282.43C567.647 281.812 568.507 281.383 569.437 281.141C570.374 280.891 571.296 280.766 572.202 280.766C572.78 280.766 573.444 280.836 574.194 280.977C574.952 281.109 575.683 281.387 576.386 281.809C577.097 282.23 577.687 282.867 578.155 283.719C578.624 284.57 578.858 285.711 578.858 287.141V299H576.093V296.562H575.952C575.765 296.953 575.452 297.371 575.015 297.816C574.577 298.262 573.995 298.641 573.269 298.953C572.542 299.266 571.655 299.422 570.608 299.422ZM571.03 296.938C572.124 296.938 573.046 296.723 573.796 296.293C574.554 295.863 575.124 295.309 575.507 294.629C575.897 293.949 576.093 293.234 576.093 292.484V289.953C575.976 290.094 575.718 290.223 575.319 290.34C574.929 290.449 574.476 290.547 573.96 290.633C573.452 290.711 572.956 290.781 572.472 290.844C571.995 290.898 571.608 290.945 571.312 290.984C570.593 291.078 569.921 291.23 569.296 291.441C568.679 291.645 568.179 291.953 567.796 292.367C567.421 292.773 567.233 293.328 567.233 294.031C567.233 294.992 567.589 295.719 568.3 296.211C569.019 296.695 569.929 296.938 571.03 296.938ZM591.734 281V283.344H582.406V281H591.734ZM585.125 276.687H587.891V293.844C587.891 294.625 588.004 295.211 588.23 295.602C588.465 295.984 588.762 296.242 589.121 296.375C589.488 296.5 589.875 296.562 590.281 296.562C590.586 296.562 590.836 296.547 591.031 296.516C591.227 296.477 591.383 296.445 591.5 296.422L592.063 298.906C591.875 298.977 591.613 299.047 591.277 299.117C590.941 299.195 590.516 299.234 590 299.234C589.219 299.234 588.453 299.066 587.703 298.73C586.961 298.395 586.344 297.883 585.852 297.195C585.367 296.508 585.125 295.641 585.125 294.594V276.687ZM595.895 299V281H598.66V299H595.895ZM597.301 278C596.762 278 596.297 277.816 595.906 277.449C595.523 277.082 595.332 276.641 595.332 276.125C595.332 275.609 595.523 275.168 595.906 274.801C596.297 274.434 596.762 274.25 597.301 274.25C597.84 274.25 598.301 274.434 598.684 274.801C599.074 275.168 599.27 275.609 599.27 276.125C599.27 276.641 599.074 277.082 598.684 277.449C598.301 277.816 597.84 278 597.301 278ZM611.038 299.375C609.413 299.375 607.987 298.988 606.761 298.215C605.542 297.441 604.589 296.359 603.901 294.969C603.222 293.578 602.882 291.953 602.882 290.094C602.882 288.219 603.222 286.582 603.901 285.184C604.589 283.785 605.542 282.699 606.761 281.926C607.987 281.152 609.413 280.766 611.038 280.766C612.663 280.766 614.085 281.152 615.304 281.926C616.53 282.699 617.483 283.785 618.163 285.184C618.851 286.582 619.194 288.219 619.194 290.094C619.194 291.953 618.851 293.578 618.163 294.969C617.483 296.359 616.53 297.441 615.304 298.215C614.085 298.988 612.663 299.375 611.038 299.375ZM611.038 296.891C612.272 296.891 613.288 296.574 614.085 295.941C614.882 295.309 615.472 294.477 615.854 293.445C616.237 292.414 616.429 291.297 616.429 290.094C616.429 288.891 616.237 287.77 615.854 286.73C615.472 285.691 614.882 284.852 614.085 284.211C613.288 283.57 612.272 283.25 611.038 283.25C609.804 283.25 608.788 283.57 607.991 284.211C607.194 284.852 606.604 285.691 606.222 286.73C605.839 287.77 605.647 288.891 605.647 290.094C605.647 291.297 605.839 292.414 606.222 293.445C606.604 294.477 607.194 295.309 607.991 295.941C608.788 296.574 609.804 296.891 611.038 296.891ZM626.182 288.172V299H623.416V281H626.088V283.812H626.322C626.744 282.898 627.385 282.164 628.244 281.609C629.104 281.047 630.213 280.766 631.572 280.766C632.791 280.766 633.857 281.016 634.771 281.516C635.686 282.008 636.396 282.758 636.904 283.766C637.412 284.766 637.666 286.031 637.666 287.563V299H634.9V287.75C634.9 286.336 634.533 285.234 633.799 284.445C633.064 283.648 632.057 283.25 630.775 283.25C629.893 283.25 629.104 283.441 628.408 283.824C627.721 284.207 627.178 284.766 626.779 285.5C626.381 286.234 626.182 287.125 626.182 288.172Z" fill="white"/>
<path d="M61.93 227.39C61.08 221.47 59.21 215.21 54.61 202.34L38.96 157.32C38.79 156.47 33.69 140.74 33.18 139.38C31.9333 135.32 31.0267 132.5 30.46 130.92C31.48 141.58 32.16 155.46 32.16 164.43V201.15C32.16 212.83 32.5 220.27 33.52 227.38H0C1.02 219.76 1.36 212.66 1.36 201.15V112.98C1.36 102.83 0.85 93.86 0 86.58H44.91C46.1 93.86 47.46 99.27 51.38 110.44L76.9 183.38L102.25 110.44C106.16 99.1 107.52 93.69 108.54 86.58H153.63C152.61 94.7 152.27 101.64 152.27 112.98V201.15C152.27 214.01 152.61 220.61 153.63 227.38H120.11C121.13 219.59 121.47 213.16 121.47 201.15V164.26C121.47 160.2 121.98 147.51 122.32 142.26C122.66 136.28 122.887 132.443 123 130.75C119.26 143.95 117.56 150.04 115.34 156.13L98.84 202.5C94.59 214.51 92.37 221.96 91.53 227.38H61.93V227.39Z" fill="white"/>
<path d="M218.8 181.61C219.48 187.7 220.67 190.75 223.22 194.13C227.3 199.21 234.45 202.08 243.13 202.08C256.23 202.08 264.06 196.33 264.06 186.85C264.06 181.6 261.34 177.03 256.91 175C253.34 173.31 249.09 172.12 231.39 168.06C215.74 164.68 210.29 162.64 204 158.24C193.28 150.79 187.5 139.46 187.5 125.75C187.5 99.69 208.6 83.27 242.12 83.27C263.73 83.27 280.23 89.87 289.42 102.56C293.67 108.14 295.71 113.22 297.93 122.87L261.86 126.76C259.82 115.76 253.69 111.19 240.76 111.19C230.38 111.19 222.72 116.77 222.72 124.56C222.72 129.3 225.27 132.85 230.72 135.39C232.987 136.403 240.813 138.263 254.2 140.97C267.13 143.68 275.3 146.55 281.76 150.62C294.01 158.24 300.13 169.57 300.13 185.14C300.13 197.83 296.05 208.66 288.22 216.28C278.35 225.76 263.38 230.66 243.47 230.66C229.01 230.66 214.72 227.61 205.53 222.37C197.02 217.63 190.73 210.36 187.15 200.71C185.45 196.65 184.6 192.76 183.41 184.97L218.8 181.58V181.61Z" fill="white"/>
<path d="M426.619 135.56C423.379 120.15 414.359 112.53 399.719 112.53C378.939 112.53 366.849 128.79 366.849 156.74C366.849 184.69 379.449 201.12 400.559 201.12C409.929 201.12 417.929 197.22 422.869 190.45C422.549 190.88 425.059 186.76 425.059 186.76L429.729 192.08L433.919 196.2L439.189 200.46L447.469 204.72L446.779 209.64L449.019 212.96C438.459 224.99 422.189 230.59 401.589 230.59C380.989 230.59 363.269 224.15 351.189 211.96C338.589 199.26 331.439 179.44 331.439 156.74C331.439 134.04 338.589 114.23 352.039 101.02C363.789 89.67 380.989 83.41 400.909 83.41C422.879 83.41 440.079 90.86 451.139 105.6C456.589 112.55 459.479 118.81 461.699 128.8L426.619 135.57V135.56Z" fill="white"/>
<path d="M609.74 227.82C608.38 219.7 607.36 215.3 605.66 209.54L601.07 195.16H552.58L547.99 209.54C545.78 216.31 544.59 221.55 543.74 227.82H503.93C506.48 222.74 508.01 218.68 512.1 207.17L548.85 105.29C551.91 97 553.44 91.92 554.3 87.01H598.7C599.89 91.92 601.08 96.32 604.48 105.29L641.4 207.17C644.63 216.14 647.35 223.08 649.57 227.82H609.76H609.74ZM576.56 115.95L560.74 166.72H592.73L576.57 115.95H576.56Z" fill="white"/>
<path d="M527.669 164.62V169.32C524.319 172.14 525.569 181.96 521.159 182.32C519.479 182.46 504.139 177.31 499.599 176.66C497.629 176.38 495.769 177.69 494.039 177.53C491.889 177.33 490.219 174.48 487.499 175.2C488.119 184.19 477.099 193.07 477.219 201.89C477.299 207.5 492.699 217.65 496.009 223.73C501.029 232.94 498.199 244.71 506.949 253.98C508.029 255.12 525.429 266.54 515.359 266.84C514.529 266.86 500.279 261.73 499.799 261.06C498.649 259.47 500.209 256.7 499.599 254.28C497.499 245.91 490.989 244.88 488.779 241.49C486.139 237.41 488.419 230.85 483.369 225.72C481.889 224.22 466.609 213.54 465.079 213.24C458.989 212.06 458.749 220.21 453.749 216.41C452.989 215.83 449.239 210.23 449.009 209.32C448.459 207.24 450.249 204.38 449.629 203.5C449.369 203.13 443.559 200.77 441.529 199.18C436.079 194.94 427.559 187.94 424.609 181.91C423.799 180.24 424.089 177.53 423.449 176.63C422.899 175.85 419.929 175.71 418.409 174C412.649 167.54 418.459 156.16 426.379 157.75C428.989 158.27 430.339 161.26 433.139 161.1C434.299 155.26 437.449 149.5 438.789 143.79C439.579 140.41 437.949 131.55 443.369 130.65C444.699 130.43 448.599 134.18 449.079 135.28C450.239 137.94 455.199 155.85 455.339 158.53C455.659 164.3 450.989 169.95 452.549 175.23C453.699 179.13 462.719 187.49 466.249 185.25C469.819 182.99 478.029 164.69 483.909 162.75C493.459 159.59 509.199 176.38 518.199 172.26C521.569 170.71 522.239 163.6 527.669 164.64V164.62ZM448.269 160.87C448.219 157.85 448.329 142.66 444.399 143.48C441.539 144.08 442.939 153.78 442.339 156.72C441.599 160.38 437.389 163.85 437.889 168.15L448.269 160.87Z" fill="#F7941D"/>
<path d="M187.526 36.4786C187.526 41.2522 184.019 43.98 179.245 43.98C173.449 43.98 169.552 40.5703 165.801 30.2438L169.26 28.8312C171.89 36.4299 174.666 40.4241 178.904 40.4241C181.778 40.4241 183.678 38.8167 183.678 36.0402C183.678 33.7996 182.168 32.046 180.268 30.6821C179.05 31.0231 177.589 31.2667 175.933 31.4128L175.154 27.9544C181.242 27.175 182.85 25.8599 182.85 23.1808C182.85 21.0376 181.437 19.6737 178.807 19.6737C176.615 19.6737 174.52 20.3556 172.426 21.6221L171.159 18.2124C173.4 16.9459 175.933 16.2153 178.953 16.2153C184.506 16.2153 186.747 19.4789 186.747 23.2295C186.747 25.7624 185.821 27.8083 183.629 29.2208L183.727 29.3183C185.285 29.7079 186.99 29.8541 188.5 29.8541C190.01 29.8541 191.618 29.7079 193.322 29.2696V20.1608H189.767V16.7024H214.901V20.1608H209.884V47H205.938V20.1608H197.268V47H193.322V32.8741C192.007 33.2151 190.643 33.3125 189.279 33.3125C188.5 33.3125 187.575 33.2638 186.649 33.1176C187.234 34.1406 187.526 35.3096 187.526 36.4786ZM232.556 44.9542L229.731 47.5845C224.617 42.9571 221.012 39.2064 218.479 35.6019C216.872 33.3125 216.239 31.7538 216.239 30.2925C216.239 28.7825 217.164 27.8083 218.82 27.8083C220.233 27.8083 221.548 28.6363 222.814 30.0976C225.493 28.8312 226.663 26.8341 226.663 24.2037C226.663 22.7424 226.322 21.135 225.834 20.1608H214.193V16.7024H234.846V20.1608H229.877C230.364 21.5247 230.559 22.9373 230.559 24.6908C230.559 29.9515 227.198 32.7767 222.181 34.9199C224.86 38.0861 228.708 41.6906 232.556 44.9542ZM242.405 20.1608V47H238.459V20.1608H234.124V16.7024H238.41C235.78 8.32426 234.806 6.91167 231.542 6.91167C230.178 6.91167 228.668 7.25264 227.499 7.69103L226.428 4.23262C227.792 3.69681 229.643 3.35584 231.299 3.35584C236.998 3.35584 238.751 6.13231 242.015 16.7024H247.422V20.1608H242.405ZM262.95 43.8826C265.239 42.9084 266.457 41.4471 266.457 39.8883C266.457 37.7451 264.85 36.1864 260.904 36.1864C256.423 36.1864 253.987 38.1835 253.987 41.4471C253.987 45.3439 258.176 47.7307 265.385 50.6045L263.437 53.9168C255.838 50.8481 250.09 47.4384 250.09 41.3009C250.09 38.5732 251.162 36.4786 252.964 35.066C251.211 33.5073 250.09 31.8512 250.09 29.7567C250.09 26.2495 252.526 24.3498 257.592 24.3498H264.314V20.1608H246.729V16.7024H273.276V20.1608H268.259V27.8083H258.128C255.254 27.8083 253.987 28.6363 253.987 30.3899C253.987 31.6076 254.913 32.8254 255.887 33.5073C257.397 32.9715 259.151 32.728 261.002 32.728C267.626 32.728 270.305 36.0402 270.305 39.937C270.305 42.6648 269.136 44.9055 265.726 46.7077L262.95 43.8826ZM303.489 20.1608V47H299.543V20.1608H293.065V31.3641C293.065 34.0918 292.529 35.8941 291.36 37.3554C289.996 38.9628 287.853 39.8883 284.833 39.8883C281.764 39.8883 279.572 38.9141 278.16 37.0144C277.039 35.5044 276.455 33.3612 276.455 29.8541V20.1608H272.607V16.7024H308.506V20.1608H303.489ZM284.735 36.4299C286.44 36.4299 287.561 35.9428 288.243 34.8712C288.925 33.7996 289.119 32.6305 289.119 29.8054V20.1608H280.4V29.8054C280.4 32.3383 280.595 33.7022 281.277 34.7738C281.959 35.8454 282.982 36.4299 284.735 36.4299ZM299.575 17.0434C296.896 8.37297 295.922 6.91167 292.61 6.91167C291.246 6.91167 289.736 7.25264 288.567 7.69103L287.495 4.23262C288.859 3.69681 290.71 3.35584 292.366 3.35584C298.065 3.35584 299.819 6.13231 303.18 17.0434H299.575ZM307.807 16.7024H335.523V20.1608H330.506V47H326.561V32.4844H317.744V35.1148C317.744 36.917 316.77 37.8425 315.26 37.8425C312.873 37.8425 309.61 34.238 309.61 31.5102C309.61 30.0489 310.389 29.026 312.581 29.026H326.561V20.1608H307.807V16.7024ZM362.493 20.1608H357.915V28.0031C357.915 33.2151 356.015 35.3096 351.631 36.5761L349.78 33.2151C353.044 32.2409 353.969 30.9744 353.969 27.4186V20.1608H342.62V30.0002C342.62 34.8225 343.302 35.6993 347.929 38.0861L351.728 40.0345C356.648 42.5674 358.012 44.1748 358.012 46.9026C358.012 48.5587 357.379 50.1662 356.307 51.5787L352.508 49.9713C353.385 48.9971 353.872 48.0229 353.872 46.9513C353.872 45.3926 353.141 44.7593 349.683 42.9571L345.542 40.8138C339.892 37.8912 338.674 36.1864 338.674 30.7309V20.1608H334.826V16.7024H362.493V20.1608ZM399.89 20.1608H384.059V29.5618C385.423 28.3441 387.371 27.516 389.758 27.516C394.385 27.516 397.113 30.4873 397.113 35.3096C397.113 38.7193 395.895 41.788 393.022 44.9542L389.612 42.8109C391.755 40.619 393.216 38.2322 393.216 35.2609C393.216 32.4357 391.804 30.9257 389.32 30.9257C387.274 30.9257 385.277 32.3383 384.059 34.5302V47H380.113V38.7193C378.36 40.278 376.022 41.2522 373.099 41.2522C368.131 41.2522 363.99 38.427 363.99 32.8254C363.99 27.516 367.692 24.3986 374.025 24.3986C375.681 24.3986 377.191 24.5934 378.409 24.8857L378.068 28.4415C376.947 28.1492 375.583 27.9544 374.122 27.9544C370.128 27.9544 367.936 29.7079 367.936 32.9715C367.936 36.1864 370.177 37.7451 373.099 37.7451C376.071 37.7451 378.652 36.089 380.113 33.9944V20.1608H361.75V16.7024H399.89V20.1608ZM407.419 20.1608V47H403.474V20.1608H399.139V16.7024H403.133C398.895 10.1265 394.219 6.86296 388.909 6.86296C384.672 6.86296 382.139 8.86007 382.139 12.0749C382.139 14.2182 383.016 15.7769 383.844 17.0434H379.752C378.826 15.3385 378.193 13.6336 378.193 11.5391C378.193 6.61941 382.041 3.35584 388.179 3.35584C396.508 3.35584 402.597 8.32426 407.224 16.7024H412.436V20.1608H407.419ZM449.884 20.1608H434.053V29.5618C435.417 28.3441 437.366 27.516 439.752 27.516C444.38 27.516 447.108 30.4873 447.108 35.3096C447.108 38.7193 445.89 41.788 443.016 44.9542L439.606 42.8109C441.75 40.619 443.211 38.2322 443.211 35.2609C443.211 32.4357 441.798 30.9257 439.314 30.9257C437.268 30.9257 435.271 32.3383 434.053 34.5302V47H430.108V38.7193C428.354 40.278 426.016 41.2522 423.094 41.2522C418.125 41.2522 413.985 38.427 413.985 32.8254C413.985 27.516 417.687 24.3986 424.019 24.3986C425.675 24.3986 427.185 24.5934 428.403 24.8857L428.062 28.4415C426.942 28.1492 425.578 27.9544 424.116 27.9544C420.122 27.9544 417.93 29.7079 417.93 32.9715C417.93 36.1864 420.171 37.7451 423.094 37.7451C426.065 37.7451 428.647 36.089 430.108 33.9944V20.1608H411.744V16.7024H449.884V20.1608ZM439.698 58.252C438.041 59.3723 435.752 60.0543 433.268 60.0543C428.494 60.0543 425.426 57.4239 425.426 53.0887C425.426 49.0458 428.348 46.4642 434.047 46.1232L434.388 49.3381C430.686 49.7765 429.03 50.9942 429.03 53.2836C429.03 55.6704 430.735 56.5959 433.122 56.5959C435.021 56.5959 436.483 56.1088 438.382 55.0372L439.698 58.252ZM472.562 20.1608V47H468.617V31.0231H461.846C457.755 31.0231 455.27 32.2896 455.27 35.748C455.27 38.9141 457.316 41.4958 461.213 45.1977L458.436 47.6819C453.858 43.2493 451.325 39.5961 451.325 35.2609C451.325 30.0002 455.173 27.5647 461.164 27.5647H468.617V20.1608H449.133V16.7024H477.58V20.1608H472.562ZM483.624 47.2768C482.771 47.2768 482.039 46.9712 481.427 46.36C480.816 45.7488 480.511 45.0165 480.511 44.1632C480.511 43.3098 480.816 42.5776 481.427 41.9664C482.039 41.3552 482.771 41.0496 483.624 41.0496C484.478 41.0496 485.21 41.3552 485.821 41.9664C486.432 42.5776 486.738 43.3098 486.738 44.1632C486.738 44.7283 486.594 45.2472 486.305 45.72C486.029 46.1928 485.654 46.5733 485.181 46.8616C484.72 47.1384 484.201 47.2768 483.624 47.2768ZM483.624 27.5575C482.771 27.5575 482.039 27.2519 481.427 26.6407C480.816 26.0296 480.511 25.2973 480.511 24.4439C480.511 23.5906 480.816 22.8583 481.427 22.2472C482.039 21.636 482.771 21.3304 483.624 21.3304C484.478 21.3304 485.21 21.636 485.821 22.2472C486.432 22.8583 486.738 23.5906 486.738 24.4439C486.738 25.009 486.594 25.5279 486.305 26.0007C486.029 26.4735 485.654 26.8541 485.181 27.1424C484.72 27.4191 484.201 27.5575 483.624 27.5575Z" fill="white"/>
</svg>
