<svg width="82" height="41" viewBox="0 0 82 41" fill="none" xmlns="http://www.w3.org/2000/svg">
<rect width="82" height="41" rx="20.5" fill="#9E9EFF"/>
<circle cx="60.8665" cy="20.5003" r="17.0833" fill="#5151FF"/>
<path d="M71 14.7381V15.5318C70.4296 16.008 70.6424 17.6663 69.8915 17.7271C69.6055 17.7507 66.9935 16.881 66.2204 16.7713C65.885 16.724 65.5683 16.9452 65.2737 16.9182C64.9076 16.8844 64.6232 16.4031 64.1601 16.5247C64.2657 18.0429 62.3892 19.5424 62.4097 21.0319C62.4233 21.9792 65.0455 23.6933 65.6091 24.72C66.4639 26.2753 65.982 28.2629 67.4719 29.8283C67.6558 30.0208 70.6186 31.9493 68.9039 32C68.7626 32.0034 66.3362 31.1371 66.2545 31.0239C66.0586 30.7554 66.3243 30.2876 66.2204 29.879C65.8628 28.4655 64.7543 28.2916 64.378 27.7191C63.9285 27.0301 64.3167 25.9224 63.4569 25.0561C63.2049 24.8027 60.6031 22.9992 60.3426 22.9486C59.3056 22.7493 59.2647 24.1256 58.4133 23.4839C58.2839 23.3859 57.6454 22.4403 57.6062 22.2866C57.5126 21.9353 57.8174 21.4524 57.7118 21.3038C57.6675 21.2413 56.6783 20.8427 56.3326 20.5742C55.4046 19.8582 53.9539 18.6761 53.4516 17.6579C53.3136 17.3758 53.363 16.9182 53.254 16.7662C53.1604 16.6345 52.6547 16.6109 52.3959 16.3221C51.4151 15.2312 52.4044 13.3094 53.7529 13.5779C54.1974 13.6658 54.4272 14.1707 54.904 14.1437C55.1015 13.1575 55.6379 12.1848 55.866 11.2205C56.0006 10.6497 55.723 9.15355 56.6459 9.00157C56.8724 8.96442 57.5364 9.59768 57.6182 9.78344C57.8157 10.2326 58.6602 13.2571 58.6841 13.7097C58.7386 14.684 57.9434 15.6382 58.209 16.5298C58.4048 17.1884 59.9407 18.6001 60.5418 18.2219C61.1496 17.8402 62.5476 14.7499 63.5488 14.4223C65.1749 13.8887 67.855 16.724 69.3875 16.0283C69.9613 15.7665 70.0754 14.5658 71 14.7415V14.7381ZM57.4802 14.1048C57.4717 13.5948 57.4905 11.0297 56.8213 11.1682C56.3343 11.2695 56.5727 12.9075 56.4705 13.404C56.3445 14.0221 55.6277 14.6081 55.7128 15.3342L57.4802 14.1048Z" fill="#F7941D"/>
</svg>
